<!DOCTYPE svg PUBLIC "-//W3C//DTD SVG 1.1//EN" "https://www.w3.org/Graphics/SVG/1.1/DTD/svg11.dtd"><svg xmlns="http://www.w3.org/2000/svg" class="sc-eoVZPG fvvxTQ graph" data-testid="graph" role="img" aria-labelledby="polymath-graph-title" width="1775" height="1473"><title id="polymath-graph-title">Workflow Studio State Machine Graph</title><g transform="translate(12.000007629394531,12)" class="new-look-graph"><g class="nodes"><g class="node-container" transform="translate(1460.5,22)"><g><circle class="sc-jGKxIK kPsCkl shape" r="22"/><text class="sc-ibQAlb MMIMs label"><tspan xml:space="preserve" text-anchor="middle" alignment-baseline="central">Start</tspan></text></g></g><g class="node-container" transform="translate(1460.5,103.5)"><g class="sc-hCPjZK fVrGYg node state Task" data-testid="graph-RunSilverDimensionJob" data-state-id="RunSilverDimensionJob" data-state-type="Task"><g class="new-look-state-node "><rect x="-120" y="-24.5" width="240" height="49" rx="3" ry="3"/><g class="handle" transform="translate(-120,-24.5)"><path d="M5,16 L5,34 M8,16 L8,34"/></g><g class="icon" transform="translate(-104,-24)"><rect fill="var(--color-background-container-header-etndi4, #fafafa)" x="0.0361026108" y="0.0181291967" width="48" height="48"/><line x1="47.5" y1="0.49122807" x2="47.5" y2="47.5" stroke="var(--color-board-placeholder-active-qurjro, #d5dbdb)" stroke-linecap="square"/><line x1="0.5" y1="0.49122807" x2="0.5" y2="47.5" stroke="var(--color-board-placeholder-active-qurjro, #d5dbdb)" stroke-linecap="square"/><use href="#icon-service-glue" aria-hidden="true"><title>AWS Glue</title></use></g><g class="text-lines" transform="translate(-48,-24.5)"><text transform="translate(0,17)" class="line1"><tspan xml:space="preserve" text-anchor="start">Glue: StartJobRun</tspan></text><text transform="translate(0,35.5)" class="line2 label"><tspan xml:space="preserve" text-anchor="start">RunSilverDimensionJob</tspan></text></g></g></g></g><g class="node-container" transform="translate(1460.5,187.5)"><g class="sc-hCPjZK fVrGYg node state Wait" data-testid="graph-WaitBeforeCheckSilverDimension" data-state-id="WaitBeforeCheckSilverDimension" data-state-type="Wait"><g class="new-look-state-node "><rect x="-146.5" y="-24.5" width="293" height="49" rx="3" ry="3"/><g class="handle" transform="translate(-146.5,-24.5)"><path d="M5,16 L5,34 M8,16 L8,34"/></g><g class="icon" transform="translate(-130.5,-24)"><rect fill="var(--color-background-container-header-etndi4, #fafafa)" x="0.0361026108" y="0.0181291967" width="48" height="48"/><line x1="47.5" y1="0.49122807" x2="47.5" y2="47.5" stroke="var(--color-board-placeholder-active-qurjro, #d5dbdb)" stroke-linecap="square"/><line x1="0.5" y1="0.49122807" x2="0.5" y2="47.5" stroke="var(--color-board-placeholder-active-qurjro, #d5dbdb)" stroke-linecap="square"/><use href="#icon-flow-wait"/></g><g class="text-lines" transform="translate(-74.5,-24.5)"><text transform="translate(0,17)" class="line1"><tspan xml:space="preserve" text-anchor="start">Wait state</tspan></text><text transform="translate(0,35.5)" class="line2 label"><tspan xml:space="preserve" text-anchor="start">WaitBeforeCheckSilverDimension</tspan></text></g></g></g></g><g class="node-container" transform="translate(1381.25,271.5)"><g class="sc-hCPjZK fVrGYg node state Task" data-testid="graph-GetSilverDimensionStatus" data-state-id="GetSilverDimensionStatus" data-state-type="Task"><g class="new-look-state-node "><rect x="-123.5" y="-24.5" width="247" height="49" rx="3" ry="3"/><g class="handle" transform="translate(-123.5,-24.5)"><path d="M5,16 L5,34 M8,16 L8,34"/></g><g class="icon" transform="translate(-107.5,-24)"><rect fill="var(--color-background-container-header-etndi4, #fafafa)" x="0.0361026108" y="0.0181291967" width="48" height="48"/><line x1="47.5" y1="0.49122807" x2="47.5" y2="47.5" stroke="var(--color-board-placeholder-active-qurjro, #d5dbdb)" stroke-linecap="square"/><line x1="0.5" y1="0.49122807" x2="0.5" y2="47.5" stroke="var(--color-board-placeholder-active-qurjro, #d5dbdb)" stroke-linecap="square"/><use href="#icon-service-glue" aria-hidden="true"><title>AWS Glue</title></use></g><g class="text-lines" transform="translate(-51.5,-24.5)"><text transform="translate(0,17)" class="line1"><tspan xml:space="preserve" text-anchor="start">Glue: GetJobRun</tspan></text><text transform="translate(0,35.5)" class="line2 label"><tspan xml:space="preserve" text-anchor="start">GetSilverDimensionStatus</tspan></text></g></g></g></g><g class="node-container" transform="translate(1460.5,355.5)"><g class="sc-hCPjZK fVrGYg node state Choice" data-testid="graph-IsSilverDimensionCompleted" data-state-id="IsSilverDimensionCompleted" data-state-type="Choice"><g class="new-look-state-node "><rect x="-132" y="-24.5" width="264" height="49" rx="3" ry="3"/><g class="handle" transform="translate(-132,-24.5)"><path d="M5,16 L5,34 M8,16 L8,34"/></g><g class="icon" transform="translate(-116,-24)"><rect fill="var(--color-background-container-header-etndi4, #fafafa)" x="0.0361026108" y="0.0181291967" width="48" height="48"/><line x1="47.5" y1="0.49122807" x2="47.5" y2="47.5" stroke="var(--color-board-placeholder-active-qurjro, #d5dbdb)" stroke-linecap="square"/><line x1="0.5" y1="0.49122807" x2="0.5" y2="47.5" stroke="var(--color-board-placeholder-active-qurjro, #d5dbdb)" stroke-linecap="square"/><use href="#icon-flow-choice"/></g><g class="text-lines" transform="translate(-60,-24.5)"><text transform="translate(0,17)" class="line1"><tspan xml:space="preserve" text-anchor="start">Choice state</tspan></text><text transform="translate(0,35.5)" class="line2 label"><tspan xml:space="preserve" text-anchor="start">IsSilverDimensionCompleted</tspan></text></g></g></g></g><g class="node-container" transform="translate(1074.5,456)"><g class="sc-hCPjZK fVrGYg node state Task" data-testid="graph-ExtractSCMFiles" data-state-id="ExtractSCMFiles" data-state-type="Task"><g class="new-look-state-node "><rect x="-120" y="-24.5" width="240" height="49" rx="3" ry="3"/><g class="handle" transform="translate(-120,-24.5)"><path d="M5,16 L5,34 M8,16 L8,34"/></g><g class="icon" transform="translate(-104,-24)"><rect fill="var(--color-background-container-header-etndi4, #fafafa)" x="0.0361026108" y="0.0181291967" width="48" height="48"/><line x1="47.5" y1="0.49122807" x2="47.5" y2="47.5" stroke="var(--color-board-placeholder-active-qurjro, #d5dbdb)" stroke-linecap="square"/><line x1="0.5" y1="0.49122807" x2="0.5" y2="47.5" stroke="var(--color-board-placeholder-active-qurjro, #d5dbdb)" stroke-linecap="square"/><use href="#icon-service-lam" aria-hidden="true"><title>Lambda</title></use></g><g class="text-lines" transform="translate(-48,-24.5)"><text transform="translate(0,17)" class="line1"><tspan xml:space="preserve" text-anchor="start">Lambda: Invoke</tspan></text><text transform="translate(0,35.5)" class="line2 label"><tspan xml:space="preserve" text-anchor="start">ExtractSCMFiles</tspan></text></g></g></g></g><g class="node-container" transform="translate(1051,1261.5)"><g class="sc-hCPjZK fVrGYg node state Task" data-testid="graph-HandleFailure" data-state-id="HandleFailure" data-state-type="Task"><g class="new-look-state-node "><rect x="-120" y="-24.5" width="240" height="49" rx="3" ry="3"/><g class="handle" transform="translate(-120,-24.5)"><path d="M5,16 L5,34 M8,16 L8,34"/></g><g class="icon" transform="translate(-104,-24)"><rect fill="var(--color-background-container-header-etndi4, #fafafa)" x="0.0361026108" y="0.0181291967" width="48" height="48"/><line x1="47.5" y1="0.49122807" x2="47.5" y2="47.5" stroke="var(--color-board-placeholder-active-qurjro, #d5dbdb)" stroke-linecap="square"/><line x1="0.5" y1="0.49122807" x2="0.5" y2="47.5" stroke="var(--color-board-placeholder-active-qurjro, #d5dbdb)" stroke-linecap="square"/><use href="#icon-service-lam" aria-hidden="true"><title>Lambda</title></use></g><g class="text-lines" transform="translate(-48,-24.5)"><text transform="translate(0,17)" class="line1"><tspan xml:space="preserve" text-anchor="start">Lambda: Invoke</tspan></text><text transform="translate(0,35.5)" class="line2 label"><tspan xml:space="preserve" text-anchor="start">HandleFailure</tspan></text></g></g></g></g><g class="node-container" transform="translate(844,540)"><g class="sc-hCPjZK fVrGYg node state Task" data-testid="graph-RunSilverFactJob" data-state-id="RunSilverFactJob" data-state-type="Task"><g class="new-look-state-node "><rect x="-120" y="-24.5" width="240" height="49" rx="3" ry="3"/><g class="handle" transform="translate(-120,-24.5)"><path d="M5,16 L5,34 M8,16 L8,34"/></g><g class="icon" transform="translate(-104,-24)"><rect fill="var(--color-background-container-header-etndi4, #fafafa)" x="0.0361026108" y="0.0181291967" width="48" height="48"/><line x1="47.5" y1="0.49122807" x2="47.5" y2="47.5" stroke="var(--color-board-placeholder-active-qurjro, #d5dbdb)" stroke-linecap="square"/><line x1="0.5" y1="0.49122807" x2="0.5" y2="47.5" stroke="var(--color-board-placeholder-active-qurjro, #d5dbdb)" stroke-linecap="square"/><use href="#icon-service-glue" aria-hidden="true"><title>AWS Glue</title></use></g><g class="text-lines" transform="translate(-48,-24.5)"><text transform="translate(0,17)" class="line1"><tspan xml:space="preserve" text-anchor="start">Glue: StartJobRun</tspan></text><text transform="translate(0,35.5)" class="line2 label"><tspan xml:space="preserve" text-anchor="start">RunSilverFactJob</tspan></text></g></g></g></g><g class="node-container" transform="translate(844,624)"><g class="sc-hCPjZK fVrGYg node state Wait" data-testid="graph-WaitBeforeCheckSilverFact" data-state-id="WaitBeforeCheckSilverFact" data-state-type="Wait"><g class="new-look-state-node "><rect x="-126" y="-24.5" width="252" height="49" rx="3" ry="3"/><g class="handle" transform="translate(-126,-24.5)"><path d="M5,16 L5,34 M8,16 L8,34"/></g><g class="icon" transform="translate(-110,-24)"><rect fill="var(--color-background-container-header-etndi4, #fafafa)" x="0.0361026108" y="0.0181291967" width="48" height="48"/><line x1="47.5" y1="0.49122807" x2="47.5" y2="47.5" stroke="var(--color-board-placeholder-active-qurjro, #d5dbdb)" stroke-linecap="square"/><line x1="0.5" y1="0.49122807" x2="0.5" y2="47.5" stroke="var(--color-board-placeholder-active-qurjro, #d5dbdb)" stroke-linecap="square"/><use href="#icon-flow-wait"/></g><g class="text-lines" transform="translate(-54,-24.5)"><text transform="translate(0,17)" class="line1"><tspan xml:space="preserve" text-anchor="start">Wait state</tspan></text><text transform="translate(0,35.5)" class="line2 label"><tspan xml:space="preserve" text-anchor="start">WaitBeforeCheckSilverFact</tspan></text></g></g></g></g><g class="node-container" transform="translate(705.5,708)"><g class="sc-hCPjZK fVrGYg node state Task" data-testid="graph-GetSilverFactStatus" data-state-id="GetSilverFactStatus" data-state-type="Task"><g class="new-look-state-node "><rect x="-120" y="-24.5" width="240" height="49" rx="3" ry="3"/><g class="handle" transform="translate(-120,-24.5)"><path d="M5,16 L5,34 M8,16 L8,34"/></g><g class="icon" transform="translate(-104,-24)"><rect fill="var(--color-background-container-header-etndi4, #fafafa)" x="0.0361026108" y="0.0181291967" width="48" height="48"/><line x1="47.5" y1="0.49122807" x2="47.5" y2="47.5" stroke="var(--color-board-placeholder-active-qurjro, #d5dbdb)" stroke-linecap="square"/><line x1="0.5" y1="0.49122807" x2="0.5" y2="47.5" stroke="var(--color-board-placeholder-active-qurjro, #d5dbdb)" stroke-linecap="square"/><use href="#icon-service-glue" aria-hidden="true"><title>AWS Glue</title></use></g><g class="text-lines" transform="translate(-48,-24.5)"><text transform="translate(0,17)" class="line1"><tspan xml:space="preserve" text-anchor="start">Glue: GetJobRun</tspan></text><text transform="translate(0,35.5)" class="line2 label"><tspan xml:space="preserve" text-anchor="start">GetSilverFactStatus</tspan></text></g></g></g></g><g class="node-container" transform="translate(844,792)"><g class="sc-hCPjZK fVrGYg node state Choice" data-testid="graph-IsSilverFactCompleted" data-state-id="IsSilverFactCompleted" data-state-type="Choice"><g class="new-look-state-node "><rect x="-120" y="-24.5" width="240" height="49" rx="3" ry="3"/><g class="handle" transform="translate(-120,-24.5)"><path d="M5,16 L5,34 M8,16 L8,34"/></g><g class="icon" transform="translate(-104,-24)"><rect fill="var(--color-background-container-header-etndi4, #fafafa)" x="0.0361026108" y="0.0181291967" width="48" height="48"/><line x1="47.5" y1="0.49122807" x2="47.5" y2="47.5" stroke="var(--color-board-placeholder-active-qurjro, #d5dbdb)" stroke-linecap="square"/><line x1="0.5" y1="0.49122807" x2="0.5" y2="47.5" stroke="var(--color-board-placeholder-active-qurjro, #d5dbdb)" stroke-linecap="square"/><use href="#icon-flow-choice"/></g><g class="text-lines" transform="translate(-48,-24.5)"><text transform="translate(0,17)" class="line1"><tspan xml:space="preserve" text-anchor="start">Choice state</tspan></text><text transform="translate(0,35.5)" class="line2 label"><tspan xml:space="preserve" text-anchor="start">IsSilverFactCompleted</tspan></text></g></g></g></g><g class="node-container" transform="translate(377,892.5)"><g class="sc-hCPjZK fVrGYg node state Task" data-testid="graph-RunGoldFactJob" data-state-id="RunGoldFactJob" data-state-type="Task"><g class="new-look-state-node "><rect x="-120" y="-24.5" width="240" height="49" rx="3" ry="3"/><g class="handle" transform="translate(-120,-24.5)"><path d="M5,16 L5,34 M8,16 L8,34"/></g><g class="icon" transform="translate(-104,-24)"><rect fill="var(--color-background-container-header-etndi4, #fafafa)" x="0.0361026108" y="0.0181291967" width="48" height="48"/><line x1="47.5" y1="0.49122807" x2="47.5" y2="47.5" stroke="var(--color-board-placeholder-active-qurjro, #d5dbdb)" stroke-linecap="square"/><line x1="0.5" y1="0.49122807" x2="0.5" y2="47.5" stroke="var(--color-board-placeholder-active-qurjro, #d5dbdb)" stroke-linecap="square"/><use href="#icon-service-glue" aria-hidden="true"><title>AWS Glue</title></use></g><g class="text-lines" transform="translate(-48,-24.5)"><text transform="translate(0,17)" class="line1"><tspan xml:space="preserve" text-anchor="start">Glue: StartJobRun</tspan></text><text transform="translate(0,35.5)" class="line2 label"><tspan xml:space="preserve" text-anchor="start">RunGoldFactJob</tspan></text></g></g></g></g><g class="node-container" transform="translate(377,976.5)"><g class="sc-hCPjZK fVrGYg node state Wait" data-testid="graph-WaitBeforeCheckGoldFact" data-state-id="WaitBeforeCheckGoldFact" data-state-type="Wait"><g class="new-look-state-node "><rect x="-123.5" y="-24.5" width="247" height="49" rx="3" ry="3"/><g class="handle" transform="translate(-123.5,-24.5)"><path d="M5,16 L5,34 M8,16 L8,34"/></g><g class="icon" transform="translate(-107.5,-24)"><rect fill="var(--color-background-container-header-etndi4, #fafafa)" x="0.0361026108" y="0.0181291967" width="48" height="48"/><line x1="47.5" y1="0.49122807" x2="47.5" y2="47.5" stroke="var(--color-board-placeholder-active-qurjro, #d5dbdb)" stroke-linecap="square"/><line x1="0.5" y1="0.49122807" x2="0.5" y2="47.5" stroke="var(--color-board-placeholder-active-qurjro, #d5dbdb)" stroke-linecap="square"/><use href="#icon-flow-wait"/></g><g class="text-lines" transform="translate(-51.5,-24.5)"><text transform="translate(0,17)" class="line1"><tspan xml:space="preserve" text-anchor="start">Wait state</tspan></text><text transform="translate(0,35.5)" class="line2 label"><tspan xml:space="preserve" text-anchor="start">WaitBeforeCheckGoldFact</tspan></text></g></g></g></g><g class="node-container" transform="translate(276,1077)"><g class="sc-hCPjZK fVrGYg node state Task" data-testid="graph-GetGoldFactStatus" data-state-id="GetGoldFactStatus" data-state-type="Task"><g class="new-look-state-node "><rect x="-120" y="-24.5" width="240" height="49" rx="3" ry="3"/><g class="handle" transform="translate(-120,-24.5)"><path d="M5,16 L5,34 M8,16 L8,34"/></g><g class="icon" transform="translate(-104,-24)"><rect fill="var(--color-background-container-header-etndi4, #fafafa)" x="0.0361026108" y="0.0181291967" width="48" height="48"/><line x1="47.5" y1="0.49122807" x2="47.5" y2="47.5" stroke="var(--color-board-placeholder-active-qurjro, #d5dbdb)" stroke-linecap="square"/><line x1="0.5" y1="0.49122807" x2="0.5" y2="47.5" stroke="var(--color-board-placeholder-active-qurjro, #d5dbdb)" stroke-linecap="square"/><use href="#icon-service-glue" aria-hidden="true"><title>AWS Glue</title></use></g><g class="text-lines" transform="translate(-48,-24.5)"><text transform="translate(0,17)" class="line1"><tspan xml:space="preserve" text-anchor="start">Glue: GetJobRun</tspan></text><text transform="translate(0,35.5)" class="line2 label"><tspan xml:space="preserve" text-anchor="start">GetGoldFactStatus</tspan></text></g></g></g></g><g class="node-container" transform="translate(377,1161)"><g class="sc-hCPjZK fVrGYg node state Choice" data-testid="graph-IsGoldFactCompleted" data-state-id="IsGoldFactCompleted" data-state-type="Choice"><g class="new-look-state-node "><rect x="-120" y="-24.5" width="240" height="49" rx="3" ry="3"/><g class="handle" transform="translate(-120,-24.5)"><path d="M5,16 L5,34 M8,16 L8,34"/></g><g class="icon" transform="translate(-104,-24)"><rect fill="var(--color-background-container-header-etndi4, #fafafa)" x="0.0361026108" y="0.0181291967" width="48" height="48"/><line x1="47.5" y1="0.49122807" x2="47.5" y2="47.5" stroke="var(--color-board-placeholder-active-qurjro, #d5dbdb)" stroke-linecap="square"/><line x1="0.5" y1="0.49122807" x2="0.5" y2="47.5" stroke="var(--color-board-placeholder-active-qurjro, #d5dbdb)" stroke-linecap="square"/><use href="#icon-flow-choice"/></g><g class="text-lines" transform="translate(-48,-24.5)"><text transform="translate(0,17)" class="line1"><tspan xml:space="preserve" text-anchor="start">Choice state</tspan></text><text transform="translate(0,35.5)" class="line2 label"><tspan xml:space="preserve" text-anchor="start">IsGoldFactCompleted</tspan></text></g></g></g></g><g class="node-container" transform="translate(120,1261.5)"><g class="sc-hCPjZK fVrGYg node state Task" data-testid="graph-SendSummaryEmail" data-state-id="SendSummaryEmail" data-state-type="Task"><g class="new-look-state-node "><rect x="-120" y="-24.5" width="240" height="49" rx="3" ry="3"/><g class="handle" transform="translate(-120,-24.5)"><path d="M5,16 L5,34 M8,16 L8,34"/></g><g class="icon" transform="translate(-104,-24)"><rect fill="var(--color-background-container-header-etndi4, #fafafa)" x="0.0361026108" y="0.0181291967" width="48" height="48"/><line x1="47.5" y1="0.49122807" x2="47.5" y2="47.5" stroke="var(--color-board-placeholder-active-qurjro, #d5dbdb)" stroke-linecap="square"/><line x1="0.5" y1="0.49122807" x2="0.5" y2="47.5" stroke="var(--color-board-placeholder-active-qurjro, #d5dbdb)" stroke-linecap="square"/><use href="#icon-service-lam" aria-hidden="true"><title>Lambda</title></use></g><g class="text-lines" transform="translate(-48,-24.5)"><text transform="translate(0,17)" class="line1"><tspan xml:space="preserve" text-anchor="start">Lambda: Invoke</tspan></text><text transform="translate(0,35.5)" class="line2 label"><tspan xml:space="preserve" text-anchor="start">SendSummaryEmail</tspan></text></g></g></g></g><g class="node-container" transform="translate(120,1345.5)"><g class="sc-hCPjZK fVrGYg node state Pass" data-testid="graph-EndWorkflow" data-state-id="EndWorkflow" data-state-type="Pass"><g class="new-look-state-node "><rect x="-120" y="-24.5" width="240" height="49" rx="3" ry="3"/><g class="handle" transform="translate(-120,-24.5)"><path d="M5,16 L5,34 M8,16 L8,34"/></g><g class="icon" transform="translate(-104,-24)"><rect fill="var(--color-background-container-header-etndi4, #fafafa)" x="0.0361026108" y="0.0181291967" width="48" height="48"/><line x1="47.5" y1="0.49122807" x2="47.5" y2="47.5" stroke="var(--color-board-placeholder-active-qurjro, #d5dbdb)" stroke-linecap="square"/><line x1="0.5" y1="0.49122807" x2="0.5" y2="47.5" stroke="var(--color-board-placeholder-active-qurjro, #d5dbdb)" stroke-linecap="square"/><use href="#icon-flow-pass"/></g><g class="text-lines" transform="translate(-48,-24.5)"><text transform="translate(0,17)" class="line1"><tspan xml:space="preserve" text-anchor="start">Pass state</tspan></text><text transform="translate(0,35.5)" class="line2 label"><tspan xml:space="preserve" text-anchor="start">EndWorkflow</tspan></text></g></g></g></g><g class="node-container" transform="translate(585.5,1427)"><g><circle class="sc-jGKxIK kPsCkl shape" r="22"/><text class="sc-ibQAlb MMIMs label"><tspan xml:space="preserve" text-anchor="middle" alignment-baseline="central">End</tspan></text></g></g></g><g class="edges"><g class="sc-Nxspf ilwQEO edge"><path id="state-RunSilverDimensionJob:state-WaitBeforeCheckSilverDimension:normal" d="M1460.5,128L1460.5,130.91666666666666C1460.5,133.83333333333334,1460.5,139.66666666666666,1460.5,145.5C1460.5,151.33333333333334,1460.5,157.16666666666666,1460.5,160.08333333333334L1460.5,163" marker-end="url(#arrowhead)" fill="none"/></g><g class="sc-Nxspf ilwQEO edge"><path id="start:state-RunSilverDimensionJob" d="M1460.5,44L1460.5,46.916666666666664C1460.5,49.833333333333336,1460.5,55.666666666666664,1460.5,61.5C1460.5,67.33333333333333,1460.5,73.16666666666667,1460.5,76.08333333333333L1460.5,79" marker-end="url(#arrowhead)" fill="none"/></g><g class="sc-Nxspf ilwQEO edge"><path id="state-WaitBeforeCheckSilverDimension:state-GetSilverDimensionStatus:normal" d="M1414.2708333333333,212L1408.767361111111,214.91666666666666C1403.2638888888887,217.83333333333334,1392.2569444444443,223.66666666666666,1386.753472222222,229.5C1381.25,235.33333333333334,1381.25,241.16666666666666,1381.25,244.08333333333334L1381.25,247" marker-end="url(#arrowhead)" fill="none"/></g><g class="sc-Nxspf ilwQEO edge"><path id="state-GetSilverDimensionStatus:state-IsSilverDimensionCompleted:normal" d="M1381.25,296L1381.25,298.9166666666667C1381.25,301.8333333333333,1381.25,307.6666666666667,1386.7534722222224,313.5C1392.2569444444443,319.3333333333333,1403.2638888888887,325.1666666666667,1408.767361111111,328.0833333333333L1414.2708333333333,331" marker-end="url(#arrowhead)" fill="none"/></g><g class="sc-Nxspf ilwQEO edge"><path id="state-IsSilverDimensionCompleted:state-ExtractSCMFiles:choiceRule:0" d="M1328.5,372.6839378238342L1286.1666666666667,378.1949481865285C1243.8333333333333,383.70595854922277,1159.1666666666667,394.7279792746114,1116.8333333333333,404.53065630397236C1074.5,414.3333333333333,1074.5,422.9166666666667,1074.5,427.2083333333333L1074.5,431.5" marker-end="url(#arrowhead)" fill="none"/><g data-testid="graph-IsSilverDimensionCompleted-0" class="edge-label" transform="translate(1116.8333333333333,404.53065630397236)"><rect x="-100.5" y="-8.25" width="201" height="16.5" class="sc-cfxfcM iQwCth"/><text class="sc-gFAWRd ivdaoE label"><tspan xml:space="preserve" text-anchor="middle" alignment-baseline="central">$.dim_status.JobRun.JobRunState == "S…</tspan><title>$.dim_status.JobRun.JobRunState == "SUCCEEDED"</title></text></g></g><g class="sc-Nxspf ilwQEO edge"><path id="state-IsSilverDimensionCompleted:state-HandleFailure:choiceRule:1" d="M1449.2860696517414,380L1447.3217247097846,384.2916666666667C1445.3573797678275,388.5833333333333,1441.4286898839139,397.1666666666667,1439.464344941957,409.8333333333333C1437.5,422.5,1437.5,439.25,1437.5,454.625C1437.5,470,1437.5,484,1437.5,498C1437.5,512,1437.5,526,1437.5,540C1437.5,554,1437.5,568,1437.5,582C1437.5,596,1437.5,610,1437.5,624C1437.5,638,1437.5,652,1437.5,666C1437.5,680,1437.5,694,1437.5,708C1437.5,722,1437.5,736,1437.5,750C1437.5,764,1437.5,778,1437.5,793.375C1437.5,808.75,1437.5,825.5,1437.5,842.25C1437.5,859,1437.5,875.75,1437.5,891.125C1437.5,906.5,1437.5,920.5,1437.5,934.5C1437.5,948.5,1437.5,962.5,1437.5,977.875C1437.5,993.25,1437.5,1010,1437.5,1026.75C1437.5,1043.5,1437.5,1060.25,1437.5,1075.625C1437.5,1091,1437.5,1105,1437.5,1119C1437.5,1133,1437.5,1147,1437.5,1162.375C1437.5,1177.75,1437.5,1194.5,1393.0833333333333,1208.649741267788C1348.6666666666667,1222.7994825355756,1259.8333333333333,1234.3489650711515,1215.4166666666667,1240.1237063389392L1171,1245.8984476067271" marker-end="url(#arrowhead)" fill="none"/><g data-testid="graph-IsSilverDimensionCompleted-1" class="edge-label" transform="translate(1439.464344941957,409.8333333333333)"><rect x="-100" y="-8.25" width="200" height="16.5" class="sc-cfxfcM iQwCth"/><text class="sc-gFAWRd ivdaoE label"><tspan xml:space="preserve" text-anchor="middle" alignment-baseline="central">$.dim_status.JobRun.JobRunState == "F…</tspan><title>$.dim_status.JobRun.JobRunState == "FAILED"</title></text></g></g><g class="sc-Nxspf ilwQEO edge"><path id="state-IsSilverDimensionCompleted:state-HandleFailure:choiceRule:2" d="M1561.4253731343283,380L1579.1044776119404,384.2916666666667C1596.7835820895523,388.5833333333333,1632.1417910447763,397.1666666666667,1649.8208955223881,409.8333333333333C1667.5,422.5,1667.5,439.25,1667.5,454.625C1667.5,470,1667.5,484,1667.5,498C1667.5,512,1667.5,526,1667.5,540C1667.5,554,1667.5,568,1667.5,582C1667.5,596,1667.5,610,1667.5,624C1667.5,638,1667.5,652,1667.5,666C1667.5,680,1667.5,694,1667.5,708C1667.5,722,1667.5,736,1667.5,750C1667.5,764,1667.5,778,1667.5,793.375C1667.5,808.75,1667.5,825.5,1667.5,842.25C1667.5,859,1667.5,875.75,1667.5,891.125C1667.5,906.5,1667.5,920.5,1667.5,934.5C1667.5,948.5,1667.5,962.5,1667.5,977.875C1667.5,993.25,1667.5,1010,1667.5,1026.75C1667.5,1043.5,1667.5,1060.25,1667.5,1075.625C1667.5,1091,1667.5,1105,1667.5,1119C1667.5,1133,1667.5,1147,1667.5,1162.375C1667.5,1177.75,1667.5,1194.5,1584.75,1209.6198296836983C1502,1224.7396593673966,1336.5,1238.2293187347932,1253.75,1244.9741484184915L1171,1251.7189781021898" marker-end="url(#arrowhead)" fill="none"/><g data-testid="graph-IsSilverDimensionCompleted-2" class="edge-label" transform="translate(1649.8208955223881,409.8333333333333)"><rect x="-100.5" y="-8.25" width="201" height="16.5" class="sc-cfxfcM iQwCth"/><text class="sc-gFAWRd ivdaoE label"><tspan xml:space="preserve" text-anchor="middle" alignment-baseline="central">$.dim_status.JobRun.JobRunState == "S…</tspan><title>$.dim_status.JobRun.JobRunState == "Stopped"</title></text></g></g><g class="sc-Nxspf ilwQEO edge"><path id="state-IsSilverDimensionCompleted:state-WaitBeforeCheckSilverDimension:choiceDefault" d="M1506.7291666666667,331L1512.232638888889,328.0833333333333C1517.7361111111113,325.1666666666667,1528.7430555555557,319.3333333333333,1534.246527777778,309.4166666666667C1539.75,299.5,1539.75,285.5,1539.75,271.5C1539.75,257.5,1539.75,243.5,1534.2465277777776,233.58333333333334C1528.7430555555557,223.66666666666666,1517.7361111111113,217.83333333333334,1512.232638888889,214.91666666666666L1506.7291666666667,212" marker-end="url(#arrowhead)" fill="none"/><g data-testid="graph-IsSilverDimensionCompleted-Default" class="edge-label" transform="translate(1534.246527777778,309.4166666666667)"><rect x="-22" y="-8.25" width="44" height="16.5" class="sc-cfxfcM iQwCth"/><text class="sc-gFAWRd ivdaoE label"><tspan xml:space="preserve" text-anchor="middle" alignment-baseline="central">Default</tspan><title>Default</title></text></g></g><g class="sc-Nxspf ilwQEO edge"><path id="state-ExtractSCMFiles:state-RunSilverFactJob:normal" d="M954.5,477.8655097613883L936.0833333333334,481.22125813449026C917.6666666666666,484.57700650759216,880.8333333333334,491.2885032537961,862.4166666666666,497.5609182935647C844,503.8333333333333,844,509.6666666666667,844,512.5833333333334L844,515.5" marker-end="url(#arrowhead)" fill="none"/></g><g class="sc-Nxspf ilwQEO edge"><path id="state-ExtractSCMFiles:state-HandleFailure:catch:0" d="M1194.5,480.28915662650604L1209.0833333333333,483.24096385542174C1223.6666666666667,486.1927710843374,1252.8333333333333,492.0963855421687,1267.4166666666667,502.04819277108436C1282,512,1282,526,1282,540C1282,554,1282,568,1282,582C1282,596,1282,610,1282,624C1282,638,1282,652,1282,666C1282,680,1282,694,1282,708C1282,722,1282,736,1282,750C1282,764,1282,778,1282,793.375C1282,808.75,1282,825.5,1282,842.25C1282,859,1282,875.75,1282,891.125C1282,906.5,1282,920.5,1282,934.5C1282,948.5,1282,962.5,1282,977.875C1282,993.25,1282,1010,1282,1026.75C1282,1043.5,1282,1060.25,1282,1075.625C1282,1091,1282,1105,1282,1119C1282,1133,1282,1147,1282,1162.375C1282,1177.75,1282,1194.5,1262.271144278607,1207.1666666666667C1242.542288557214,1219.8333333333333,1203.084577114428,1228.4166666666667,1183.3557213930349,1232.7083333333333L1163.6268656716418,1237" marker-end="url(#arrowhead)" fill="none"/><g data-testid="graph-ExtractSCMFiles-0" class="edge-label" transform="translate(1267.4166666666667,502.04819277108436)"><rect x="-25" y="-8.25" width="50" height="16.5" class="sc-cfxfcM iQwCth"/><text class="sc-gFAWRd ivdaoE label"><tspan xml:space="preserve" text-anchor="middle" alignment-baseline="central">Catch #1</tspan><title>Catch #1</title></text></g></g><g class="sc-Nxspf ilwQEO edge"><path id="state-RunSilverFactJob:state-WaitBeforeCheckSilverFact:normal" d="M844,564.5L844,567.4166666666666C844,570.3333333333334,844,576.1666666666666,844,582C844,587.8333333333334,844,593.6666666666666,844,596.5833333333334L844,599.5" marker-end="url(#arrowhead)" fill="none"/></g><g class="sc-Nxspf ilwQEO edge"><path id="state-WaitBeforeCheckSilverFact:state-GetSilverFactStatus:normal" d="M763.2083333333334,648.5L753.5902777777778,651.4166666666666C743.9722222222223,654.3333333333334,724.7361111111112,660.1666666666666,715.1180555555557,666C705.5,671.8333333333334,705.5,677.6666666666666,705.5,680.5833333333334L705.5,683.5" marker-end="url(#arrowhead)" fill="none"/></g><g class="sc-Nxspf ilwQEO edge"><path id="state-GetSilverFactStatus:state-IsSilverFactCompleted:normal" d="M705.5,732.5L705.5,735.4166666666666C705.5,738.3333333333334,705.5,744.1666666666666,715.1180555555555,750C724.7361111111112,755.8333333333334,743.9722222222223,761.6666666666666,753.5902777777778,764.5833333333334L763.2083333333334,767.5" marker-end="url(#arrowhead)" fill="none"/></g><g class="sc-Nxspf ilwQEO edge"><path id="state-IsSilverFactCompleted:state-RunGoldFactJob:choiceRule:0" d="M724,804.9122055674518L666.1666666666666,811.1351713062098C608.3333333333334,817.3581370449679,492.6666666666667,829.8040685224838,434.8333333333333,840.3187009279086C377,850.8333333333334,377,859.4166666666666,377,863.7083333333334L377,868" marker-end="url(#arrowhead)" fill="none"/><g data-testid="graph-IsSilverFactCompleted-0" class="edge-label" transform="translate(434.8333333333333,840.3187009279086)"><rect x="-100.5" y="-8.25" width="201" height="16.5" class="sc-cfxfcM iQwCth"/><text class="sc-gFAWRd ivdaoE label"><tspan xml:space="preserve" text-anchor="middle" alignment-baseline="central">$.fact_status.JobRun.JobRunState == "S…</tspan><title>$.fact_status.JobRun.JobRunState == "SUCCEEDED"</title></text></g></g><g class="sc-Nxspf ilwQEO edge"><path id="state-IsSilverFactCompleted:state-HandleFailure:choiceRule:1" d="M832.7860696517413,816.5L830.8217247097845,820.7916666666666C828.8573797678276,825.0833333333334,824.9286898839138,833.6666666666666,822.9643449419568,846.3333333333334C821,859,821,875.75,821,891.125C821,906.5,821,920.5,821,934.5C821,948.5,821,962.5,821,977.875C821,993.25,821,1010,821,1026.75C821,1043.5,821,1060.25,821,1075.625C821,1091,821,1105,821,1119C821,1133,821,1147,821,1162.375C821,1177.75,821,1194.5,840.6434494195688,1207.1666666666667C860.2868988391377,1219.8333333333333,899.5737976782754,1228.4166666666667,919.2172470978443,1232.7083333333333L938.860696517413,1237" marker-end="url(#arrowhead)" fill="none"/><g data-testid="graph-IsSilverFactCompleted-1" class="edge-label" transform="translate(822.9643449419568,846.3333333333334)"><rect x="-100" y="-8.25" width="200" height="16.5" class="sc-cfxfcM iQwCth"/><text class="sc-gFAWRd ivdaoE label"><tspan xml:space="preserve" text-anchor="middle" alignment-baseline="central">$.fact_status.JobRun.JobRunState == "F…</tspan><title>$.fact_status.JobRun.JobRunState == "FAILED"</title></text></g></g><g class="sc-Nxspf ilwQEO edge"><path id="state-IsSilverFactCompleted:state-HandleFailure:choiceRule:2" d="M944.9253731343283,816.5L962.6044776119403,820.7916666666666C980.2835820895522,825.0833333333334,1015.6417910447761,833.6666666666666,1033.3208955223881,846.3333333333334C1051,859,1051,875.75,1051,891.125C1051,906.5,1051,920.5,1051,934.5C1051,948.5,1051,962.5,1051,977.875C1051,993.25,1051,1010,1051,1026.75C1051,1043.5,1051,1060.25,1051,1075.625C1051,1091,1051,1105,1051,1119C1051,1133,1051,1147,1051,1162.375C1051,1177.75,1051,1194.5,1051,1207.1666666666667C1051,1219.8333333333333,1051,1228.4166666666667,1051,1232.7083333333333L1051,1237" marker-end="url(#arrowhead)" fill="none"/><g data-testid="graph-IsSilverFactCompleted-2" class="edge-label" transform="translate(1033.3208955223881,846.3333333333334)"><rect x="-100.5" y="-8.25" width="201" height="16.5" class="sc-cfxfcM iQwCth"/><text class="sc-gFAWRd ivdaoE label"><tspan xml:space="preserve" text-anchor="middle" alignment-baseline="central">$.fact_status.JobRun.JobRunState == "S…</tspan><title>$.fact_status.JobRun.JobRunState == "Stopped"</title></text></g></g><g class="sc-Nxspf ilwQEO edge"><path id="state-IsSilverFactCompleted:state-WaitBeforeCheckSilverFact:choiceDefault" d="M964,774.3467600700526L991.5833333333334,770.2889667250438C1019.1666666666666,766.2311733800351,1074.3333333333333,758.1155866900175,1101.9166666666667,747.0577933450087C1129.5,736,1129.5,722,1129.5,708C1129.5,694,1129.5,680,1102.9166666666667,669.0893169877407C1076.3333333333333,658.1786339754816,1023.1666666666666,650.3572679509632,996.5833333333334,646.446584938704L970,642.5359019264448" marker-end="url(#arrowhead)" fill="none"/><g data-testid="graph-IsSilverFactCompleted-Default" class="edge-label" transform="translate(1101.9166666666667,747.0577933450087)"><rect x="-22" y="-8.25" width="44" height="16.5" class="sc-cfxfcM iQwCth"/><text class="sc-gFAWRd ivdaoE label"><tspan xml:space="preserve" text-anchor="middle" alignment-baseline="central">Default</tspan><title>Default</title></text></g></g><g class="sc-Nxspf ilwQEO edge"><path id="state-RunGoldFactJob:state-WaitBeforeCheckGoldFact:normal" d="M377,917L377,919.9166666666666C377,922.8333333333334,377,928.6666666666666,377,934.5C377,940.3333333333334,377,946.1666666666666,377,949.0833333333334L377,952" marker-end="url(#arrowhead)" fill="none"/></g><g class="sc-Nxspf ilwQEO edge"><path id="state-WaitBeforeCheckGoldFact:state-GetGoldFactStatus:normal" d="M327.7562189054726,1001L319.1301824212272,1005.2916666666666C310.50414593698173,1009.5833333333334,293.2520729684909,1018.1666666666666,284.62603648424545,1026.75C276,1035.3333333333333,276,1043.9166666666667,276,1048.2083333333333L276,1052.5" marker-end="url(#arrowhead)" fill="none"/></g><g class="sc-Nxspf ilwQEO edge"><path id="state-GetGoldFactStatus:state-IsGoldFactCompleted:normal" d="M276,1101.5L276,1104.4166666666667C276,1107.3333333333333,276,1113.1666666666667,283.01388888888886,1119C290.02777777777777,1124.8333333333333,304.05555555555554,1130.6666666666667,311.0694444444444,1133.5833333333333L318.0833333333333,1136.5" marker-end="url(#arrowhead)" fill="none"/></g><g class="sc-Nxspf ilwQEO edge"><path id="state-IsGoldFactCompleted:state-SendSummaryEmail:choiceRule:0" d="M257,1184.4630350194552L234.16666666666666,1188.9275291828792C211.33333333333334,1193.3920233463034,165.66666666666666,1202.3210116731518,142.83333333333334,1211.0771725032425C120,1219.8333333333333,120,1228.4166666666667,120,1232.7083333333333L120,1237" marker-end="url(#arrowhead)" fill="none"/><g data-testid="graph-IsGoldFactCompleted-0" class="edge-label" transform="translate(142.83333333333334,1211.0771725032425)"><rect x="-102" y="-8.25" width="204" height="16.5" class="sc-cfxfcM iQwCth"/><text class="sc-gFAWRd ivdaoE label"><tspan xml:space="preserve" text-anchor="middle" alignment-baseline="central">$.gold_status.JobRun.JobRunState == "S…</tspan><title>$.gold_status.JobRun.JobRunState == "SUCCEEDED"</title></text></g></g><g class="sc-Nxspf ilwQEO edge"><path id="state-IsGoldFactCompleted:state-HandleFailure:choiceRule:1" d="M365.7860696517413,1185.5L363.8217247097844,1189.7916666666667C361.8573797678275,1194.0833333333333,357.9286898839138,1202.6666666666667,452.13101160862357,1213.8914395026302C546.3333333333334,1225.1162123385939,738.6666666666666,1238.982424677188,834.8333333333334,1245.915530846485L931,1252.8486370157818" marker-end="url(#arrowhead)" fill="none"/><g data-testid="graph-IsGoldFactCompleted-1" class="edge-label" transform="translate(452.13101160862357,1213.8914395026302)"><rect x="-101.5" y="-8.25" width="203" height="16.5" class="sc-cfxfcM iQwCth"/><text class="sc-gFAWRd ivdaoE label"><tspan xml:space="preserve" text-anchor="middle" alignment-baseline="central">$.gold_status.JobRun.JobRunState == "F…</tspan><title>$.gold_status.JobRun.JobRunState == "FAILED"</title></text></g></g><g class="sc-Nxspf ilwQEO edge"><path id="state-IsGoldFactCompleted:state-HandleFailure:choiceRule:2" d="M479.3880597014925,1185.5L497.3233830845771,1189.7916666666667C515.2587064676617,1194.0833333333333,551.1293532338308,1202.6666666666667,626.3980099502488,1213.1673850574714C701.6666666666666,1223.668103448276,816.3333333333334,1236.0862068965519,873.6666666666666,1242.2952586206898L931,1248.5043103448277" marker-end="url(#arrowhead)" fill="none"/><g data-testid="graph-IsGoldFactCompleted-2" class="edge-label" transform="translate(626.3980099502488,1213.1673850574714)"><rect x="-102" y="-8.25" width="204" height="16.5" class="sc-cfxfcM iQwCth"/><text class="sc-gFAWRd ivdaoE label"><tspan xml:space="preserve" text-anchor="middle" alignment-baseline="central">$.gold_status.JobRun.JobRunState == "S…</tspan><title>$.gold_status.JobRun.JobRunState == "Stopped"</title></text></g></g><g class="sc-Nxspf ilwQEO edge"><path id="state-IsGoldFactCompleted:state-WaitBeforeCheckGoldFact:choiceDefault" d="M497,1143.6206896551723L525.3333333333334,1139.5172413793102C553.6666666666666,1135.4137931034481,610.3333333333334,1127.206896551724,638.6666666666666,1116.103448275862C667,1105,667,1091,667,1075.625C667,1060.25,667,1043.5,639.25,1030.3165948275862C611.5,1017.1331896551724,556,1007.5163793103447,528.25,1002.707974137931L500.5,997.8995689655172" marker-end="url(#arrowhead)" fill="none"/><g data-testid="graph-IsGoldFactCompleted-Default" class="edge-label" transform="translate(638.6666666666666,1116.103448275862)"><rect x="-22" y="-8.25" width="44" height="16.5" class="sc-cfxfcM iQwCth"/><text class="sc-gFAWRd ivdaoE label"><tspan xml:space="preserve" text-anchor="middle" alignment-baseline="central">Default</tspan><title>Default</title></text></g></g><g class="sc-Nxspf ilwQEO edge"><path id="state-SendSummaryEmail:state-EndWorkflow:normal" d="M120,1286L120,1288.9166666666667C120,1291.8333333333333,120,1297.6666666666667,120,1303.5C120,1309.3333333333333,120,1315.1666666666667,120,1318.0833333333333L120,1321" marker-end="url(#arrowhead)" fill="none"/></g><g class="sc-Nxspf ilwQEO edge"><path id="state-EndWorkflow:end:normal" d="M120,1370L120,1372.9166666666667C120,1375.8333333333333,120,1381.6666666666667,193.9297964829481,1390.8566458168489C267.85959296589624,1400.046624967031,415.7191859317925,1412.5932499340618,489.6489824147406,1418.8665624175774L563.5787788976887,1425.1398749010928" marker-end="url(#arrowhead)" fill="none"/></g><g class="sc-Nxspf ilwQEO edge"><path id="state-HandleFailure:end:normal" d="M1051,1286L1051,1288.9166666666667C1051,1291.8333333333333,1051,1297.6666666666667,1051,1307.5833333333333C1051,1317.5,1051,1331.5,1051,1345.5C1051,1359.5,1051,1373.5,977.0702035170519,1386.7733124835156C903.1404070341038,1400.046624967031,755.2808140682076,1412.5932499340618,681.3510175852595,1418.8665624175774L607.4212211023113,1425.1398749010928" marker-end="url(#arrowhead)" fill="none"/></g></g><defs><marker id="arrowhead" markerWidth="8" markerHeight="6" refX="7" refY="3" orient="auto" class="sc-jaXxmE kvyjQd"><polygon points="0 0, 8 3, 0 6"/></marker><marker id="highlighted-arrowhead" markerWidth="6" markerHeight="4" refX="5" refY="2" orient="auto" class="sc-jaXxmE kvyjQd"><polygon points="0 0, 6 2, 0 4"/></marker><marker id="error-arrowhead" markerWidth="6" markerHeight="4" refX="5" refY="2" orient="auto" class="sc-jaXxmE kvyjQd"><polygon points="0 0, 6 2, 0 4"/></marker><marker id="large-arrowhead" markerWidth="10" markerHeight="8" refX="9" refY="4" orient="auto" class="sc-jaXxmE kvyjQd"><polygon points="0 0, 10 4, 0 8"/></marker><marker id="large-highlighted-arrowhead" markerWidth="5.5" markerHeight="4" refX="4.5" refY="2" orient="auto" class="sc-jaXxmE kvyjQd"><polygon points="0 0, 5.5 2, 0 4"/></marker><marker id="large-error-arrowhead" markerWidth="10" markerHeight="8" refX="9" refY="4" orient="auto" class="sc-jaXxmE kvyjQd"><polygon points="0 0, 10 4, 0 8"/></marker><linearGradient x1="0%" y1="100%" x2="100%" y2="0%" id="gradient-orange"><stop stop-color="#C8511B" offset="0%"/><stop stop-color="#FF9900" offset="100%"/></linearGradient><linearGradient x1="0%" y1="100%" x2="100%" y2="0%" id="gradient-turquoise"><stop stop-color="#055F4E" offset="0%"/><stop stop-color="#56C0A7" offset="100%"/></linearGradient><linearGradient x1="0%" y1="100%" x2="100%" y2="0%" id="gradient-blue"><stop stop-color="#2E27AD" offset="0%"/><stop stop-color="#527FFF" offset="100%"/></linearGradient><linearGradient x1="0%" y1="100%" x2="100%" y2="0%" id="gradient-pink"><stop stop-color="#B0084D" offset="0%"/><stop stop-color="#FF4F8B" offset="100%"/></linearGradient><linearGradient x1="0%" y1="100%" x2="100%" y2="0%" id="gradient-red"><stop stop-color="#BD0816" offset="0%"/><stop stop-color="#FF5252" offset="100%"/></linearGradient><linearGradient x1="0%" y1="100%" x2="100%" y2="0%" id="gradient-green"><stop stop-color="#1B660F" offset="0%"/><stop stop-color="#6CAE3E" offset="100%"/></linearGradient><linearGradient x1="0%" y1="100%" x2="100%" y2="0%" id="gradient-purple"><stop stop-color="#4D27A8" offset="0%"/><stop stop-color="#A166FF" offset="100%"/></linearGradient><linearGradient x1="0%" y1="100%" x2="100%" y2="0%" id="gradient-grey"><stop stop-color="#DCDCDC" offset="0%"/><stop stop-color="#F6F5F7" offset="100%"/></linearGradient><linearGradient x1="0%" y1="100%" x2="100%" y2="0%" id="gradient-light-pink"><stop stop-color="#DD344C" offset="0%"/><stop stop-color="#DD344C" offset="100%"/></linearGradient>,<linearGradient x1="0%" y1="100%" x2="100%" y2="0%" id="gradient-ag"><stop stop-color="#BC1356" offset="0%"/><stop stop-color="#F34482" offset="100%"/></linearGradient><linearGradient x1="0%" y1="100%" x2="100%" y2="0%" id="gradient-athena"><stop stop-color="#5930B5" offset="0%"/><stop stop-color="#945DF2" offset="100%"/></linearGradient><linearGradient x1="0%" y1="100%" x2="100%" y2="0%" id="gradient-emr"><stop stop-color="#5930B5" offset="0%"/><stop stop-color="#945DF2" offset="100%"/></linearGradient><linearGradient x1="0%" y1="100%" x2="100%" y2="0%" id="gradient-glue"><stop stop-color="#5930B5" offset="0%"/><stop stop-color="#945DF2" offset="100%"/></linearGradient><linearGradient x1="0%" y1="100%" x2="100%" y2="0%" id="gradient-sns"><stop stop-color="#BC1356" offset="0%"/><stop stop-color="#F34482" offset="100%"/></linearGradient><linearGradient x1="0%" y1="100%" x2="100%" y2="0%" id="gradient-states"><stop stop-color="#BC1356" offset="0%"/><stop stop-color="#F34482" offset="100%"/></linearGradient><linearGradient x1="0%" y1="100%" x2="100%" y2="0%" id="gradient-generic"><stop stop-color="#ccc" offset="0%"/><stop stop-color="#ddd" offset="100%"/></linearGradient><g stroke="none" stroke-width="1" fill="none" fill-rule="evenodd" id="icon-flow-pass"><g transform="translate(10.500000, 8.750000)" fill="#0073BB" fill-rule="nonzero"><path d="M13.8217363,31.2803301 L13.7368454,31.3532508 L13.7368454,31.3532508 L13.6534426,31.407053 L13.6534426,31.407053 L13.6052878,31.4313839 L13.6052878,31.4313839 L13.5081671,31.4681458 L13.5081671,31.4681458 L13.4513711,31.4828395 L13.4513711,31.4828395 L13.3846755,31.4942127 L13.3846755,31.4942127 L13.3412428,31.498357 L13.3412428,31.498357 L13.241495,31.498357 L13.241495,31.498357 L13.1802045,31.4917588 L13.1802045,31.4917588 L13.1314644,31.4828361 L13.1314644,31.4828361 L13.0652921,31.4652652 L12.9776235,31.4314294 L12.9776235,31.4314294 L12.9293782,31.4070608 L12.9293782,31.4070608 L12.8294824,31.3409596 L12.7610762,31.2803301 L12.7610762,31.2803301 L8.26107616,26.7803301 C7.96818295,26.4874369 7.96818295,26.0125631 8.26107616,25.7196699 C8.52734273,25.4534034 8.94400641,25.4291973 9.2376179,25.6470518 L9.32173634,25.7196699 L12.5814063,28.979 L12.581,19.7495522 L3.5,19.75 C1.6314366,19.75 0.104873551,18.2857224 0.00517886273,16.4420352 L0,16.25 L0,12.25 C0,10.3814366 1.4642776,8.85487355 3.3079648,8.75517886 L3.5,8.75 L11.686,8.74955216 L11.686,10.2495522 L3.5,10.25 C2.4456382,10.25 1.58183488,11.0658778 1.50548574,12.1007377 L1.5,12.25 L1.5,16.25 C1.5,17.3043618 2.31587779,18.1681651 3.35073766,18.2445143 L3.5,18.25 L22.5,18.25 C23.5543618,18.25 24.4181651,17.4341222 24.4945143,16.3992623 L24.5,16.25 L24.5,12.25 C24.5,11.1956382 23.6841222,10.3318349 22.6492623,10.2554857 L22.5,10.25 L15.686,10.2495522 L15.686,8.74955216 L22.5,8.75 C24.3685634,8.75 25.8951264,10.2142776 25.9948211,12.0579648 L26,12.25 L26,16.25 C26,18.1185634 24.5357224,19.6451264 22.6920352,19.7448211 L22.5,19.75 L14.081,19.7495522 L14.0814063,28.899 L17.2610762,25.7196699 L17.3451946,25.6470518 C17.6388061,25.4291973 18.0554698,25.4534034 18.3217363,25.7196699 C18.5880029,25.9859365 18.6122089,26.4026002 18.3943545,26.6962117 L18.3217363,26.7803301 L13.8217363,31.2803301 Z" fill="false"/><polygon points="14.0818291 0 14.0818291 14.5 12.5818291 14.5 12.5818291 0" fill="false"/></g></g><g stroke-width="1" fill="none" fill-rule="evenodd" id="icon-flow-wait"><path d="M26.75,8.85825893 L26.75,10.3582589 L25,10.3582589 L25.0010332,13.2887186 C27.2395643,13.4625704 29.3159269,14.2145278 31.0809903,15.3954598 L32.3188424,13.6912711 L34.7458934,15.4546269 L33.3682881,17.3513419 C35.4674483,19.6240431 36.75,22.6622436 36.75,26 C36.75,33.0416306 31.0416306,38.75 24,38.75 C16.9583694,38.75 11.25,33.0416306 11.25,26 C11.25,22.7657627 12.4542298,19.8127884 14.4387685,17.5649977 L12.9047966,15.4546269 L15.3318476,13.6912711 L16.6858812,15.555197 C18.2387522,14.4657629 20.0456704,13.7138336 22.0001068,13.4059384 L22,10.3582589 L20.25,10.3582589 L20.25,8.85825893 L26.75,8.85825893 Z M24,14.75 C17.7867966,14.75 12.75,19.7867966 12.75,26 C12.75,32.2132034 17.7867966,37.25 24,37.25 C30.2132034,37.25 35.25,32.2132034 35.25,26 C35.25,19.7867966 30.2132034,14.75 24,14.75 Z M24.4666648,19.3452148 L24.466,26.499 L30.9387207,26.4993034 L30.9387207,27.9993034 L23.7166648,27.9993034 C23.336969,27.9993034 23.0231738,27.7171495 22.9735114,27.3510739 L22.9666648,27.2493034 L22.9666648,19.3452148 L24.4666648,19.3452148 Z" fill-rule="nonzero" fill="#0073BB"/></g><g stroke="none" stroke-width="1" fill="none" fill-rule="evenodd" id="icon-flow-choice"><g transform="translate(9.252020, 8.729185)" fill="#0073BB" fill-rule="nonzero"><path d="M13.7176503,0.219669914 C13.9839168,-0.0465966484 14.4005805,-0.0708026996 14.694192,0.147051761 L14.7783104,0.219669914 L26.7991257,12.2404852 C27.0653923,12.5067518 27.0895983,12.9234154 26.8717439,13.2170269 L26.7991257,13.3011454 L19.848,20.251 L27.063,27.58 L27.0635443,24.4725437 C27.0635443,24.0583302 27.3993308,23.7225437 27.8135443,23.7225437 C28.1901021,23.7225437 28.5018441,24.0000532 28.5554124,24.3617142 L28.5635443,24.4725437 L28.5635443,29.4222912 C28.5635443,29.4735748 28.5583971,29.5236562 28.5485912,29.5720469 L28.5290567,29.6477745 L28.4912259,29.7440224 L28.4674556,29.7898473 L28.4399848,29.8348433 L28.3922808,29.8993609 L28.3266417,29.9693147 L28.2903734,30.0012261 L28.2103598,30.0588356 L28.1372883,30.0990133 L28.0408973,30.1372113 L27.9243738,30.1641593 C27.8841362,30.1698129 27.8491297,30.1722912 27.8135443,30.1722912 L22.8637969,30.1722912 C22.4495833,30.1722912 22.1137969,29.8365048 22.1137969,29.4222912 C22.1137969,29.0457334 22.3913063,28.7339914 22.7529674,28.6804231 L22.8637969,28.6722912 L26.032,28.672 L18.787,21.312 L14.7783104,25.3219606 C14.5120439,25.5882272 14.0953802,25.6124333 13.8017687,25.3945788 L13.7176503,25.3219606 L9.63,21.234 L2.386,28.671 L5.69974747,28.6722912 L5.81057697,28.6804231 C6.17223802,28.7339914 6.44974747,29.0457334 6.44974747,29.4222912 C6.44974747,29.801987 6.16759359,30.1157822 5.80151803,30.1654446 L5.69974747,30.1722912 L0.75,30.1722912 L0.645175107,30.1650238 L0.571316134,30.150876 L0.491748953,30.1266437 L0.399838514,30.0857012 L0.323957521,30.0396165 L0.243169757,29.975129 L0.170912131,29.8989347 L0.109961584,29.8134582 L0.0656949991,29.7297074 L0.0297396696,29.6320944 L0.0076057584,29.5294944 L6.67910172e-13,29.4222912 L6.67910172e-13,24.4725437 L0.00813192572,24.3617142 C0.0617002376,24.0000532 0.373442216,23.7225437 0.75,23.7225437 C1.12969577,23.7225437 1.44349096,24.0046976 1.49315338,24.3707732 L1.5,24.4725437 L1.499,27.433 L8.569,20.174 L1.69683498,13.3011454 C1.43056842,13.0348788 1.40636237,12.6182151 1.62421683,12.3246036 L1.69683498,12.2404852 L13.7176503,0.219669914 Z M14.3527697,23.728356 L25.2081355,12.7708153 L14.2479803,1.81066017 L3.28782524,12.7708153 L9.616,19.099 L14.3527697,23.728356 Z" fill="false"/><path d="M15.2319803,14.0468153 L15.2319803,13.2668153 C16.0033137,12.8508153 16.5579803,12.4218153 16.8959803,11.9798153 C17.2339803,11.5378153 17.4029803,11.0178153 17.4029803,10.4198153 C17.4029803,9.65714861 17.151647,9.06131528 16.6489803,8.63231528 C16.1463137,8.20331528 15.448647,7.98881528 14.5559803,7.98881528 C13.6979803,7.98881528 12.874647,8.19248195 12.0859803,8.59981528 L12.0859803,8.59981528 L12.0859803,10.3288153 C12.8313137,9.98214861 13.4943137,9.80881528 14.0749803,9.80881528 C14.395647,9.80881528 14.6404803,9.87814861 14.8094803,10.0168153 C14.9784803,10.1554819 15.0629803,10.3591486 15.0629803,10.6278153 C15.0629803,10.9138153 14.9763137,11.1651486 14.8029803,11.3818153 C14.629647,11.5984819 14.343647,11.8151486 13.9449803,12.0318153 L13.9449803,12.0318153 L13.1909803,12.4348153 L13.3339803,14.0468153 L15.2319803,14.0468153 Z M14.3089803,17.4398153 C14.7249803,17.4398153 15.0608137,17.3141486 15.3164803,17.0628153 C15.572147,16.8114819 15.6999803,16.4821486 15.6999803,16.0748153 C15.6999803,15.6674819 15.572147,15.3381486 15.3164803,15.0868153 C15.0608137,14.8354819 14.7249803,14.7098153 14.3089803,14.7098153 C13.8929803,14.7098153 13.557147,14.8354819 13.3014803,15.0868153 C13.0458137,15.3381486 12.9179803,15.6674819 12.9179803,16.0748153 C12.9179803,16.4821486 13.0458137,16.8114819 13.3014803,17.0628153 C13.557147,17.3141486 13.8929803,17.4398153 14.3089803,17.4398153 Z" fill="false"/></g></g><g stroke="none" stroke-width="1" fill="none" fill-rule="evenodd" id="icon-service-glue"><rect fill="#FFFFFF" x="0" y="0" width="48" height="48"/><polygon fill="url(#gradient-glue)" fill-rule="nonzero" points="0 0 48 0 48 48 0 48"/><g transform="translate(12.857143, 6.857143)" fill="#FFFFFF"><path d="M11.4110924,34.7983206 C11.2500884,34.7986339 11.094057,34.7425601 10.970084,34.6398319 L6.79428571,31.1944538 C6.57103391,31.0085632 6.48834756,30.7026237 6.58756303,30.4295798 C6.68620434,30.1567421 6.94517255,29.9749134 7.23529412,29.9747899 L9.30252101,29.9747899 L9.30252101,27.907563 L10.6806723,27.907563 L10.6806723,30.6638655 C10.6806723,31.0444315 10.3721626,31.3529412 9.99159664,31.3529412 L9.15092437,31.3529412 L11.4042017,33.2134454 L13.6161345,31.3529412 L12.7478992,31.3529412 C12.3673332,31.3529412 12.0588235,31.0444315 12.0588235,30.6638655 L12.0588235,27.907563 L13.4369748,27.907563 L13.4369748,29.9747899 L15.5042017,29.9747899 C15.7914588,29.9776242 16.046819,30.1583697 16.1449919,30.4283452 C16.2431648,30.6983206 16.1635501,31.0008753 15.9452101,31.187563 L11.8521008,34.6329412 C11.7290858,34.7381552 11.5729568,34.7967036 11.4110924,34.7983206 Z"/><path d="M17.5507563,8.95798319 L17.3853782,10.3361345 C18.5201274,10.4194541 19.6390655,10.6511183 20.7136134,11.0252101 C19.4939496,11.5557983 16.0554622,12.0588235 11.3697479,12.0588235 C6.54621849,12.0588235 3.10084034,11.507563 2.00521008,11.0252101 C2.99747899,10.6048739 5.8502521,10.0398319 10.6806723,9.99159664 L10.6806723,8.61344538 C1.30235294,8.70991597 0.344537815,10.3292437 0.344537815,11.0252101 C0.341471846,11.0710973 0.341471846,11.117138 0.344537815,11.1630252 C0.358539329,11.2474457 0.386483587,11.3289498 0.427226891,11.4042017 L0.565042017,11.6453782 C0.595496695,11.7002023 0.632520414,11.7511099 0.675294118,11.7969748 C0.745398056,11.8656425 0.821499136,11.927907 0.902689076,11.9830252 L8.61344538,24.007395 L8.61344538,25.8472269 C8.61250869,26.1355861 8.79122213,26.3940332 9.06134454,26.494958 C9.81457775,26.7803536 10.6125198,26.9296761 11.4179832,26.9359664 C12.1983242,26.9336377 12.9707224,26.7791581 13.6919328,26.4811765 C13.9519555,26.377632 14.123518,26.1270963 14.1260504,25.8472269 L14.1260504,24.0005042 L21.8023529,11.989916 L21.8023529,11.989916 C22.1543874,11.7934672 22.378872,11.4280272 22.394958,11.0252101 C22.394958,10.2878992 21.8230252,9.46789916 17.5507563,8.95798319 Z M12.8581513,23.4285714 C12.78651,23.5394806 12.7482413,23.6686374 12.7478992,23.8006723 L12.7478992,25.3579832 C11.8502992,25.6368957 10.8891966,25.6368957 9.99159664,25.3579832 L9.99159664,23.8006723 C9.99125446,23.6686374 9.95298578,23.5394806 9.88134454,23.4285714 L3.03882353,12.7410084 C5.78684404,13.2406038 8.57698824,13.4713849 11.3697479,13.430084 C14.1577073,13.4646521 16.9426332,13.2339209 19.6868908,12.7410084 L12.8581513,23.4285714 Z"/><path d="M15.5042017,10.6806723 L12.7478992,10.6806723 C12.3673332,10.6806723 12.0588235,10.3721626 12.0588235,9.99159664 L12.0588235,7.23529412 C12.0588235,6.85472816 12.3673332,6.54621849 12.7478992,6.54621849 L15.5042017,6.54621849 C15.8847676,6.54621849 16.1932773,6.85472816 16.1932773,7.23529412 L16.1932773,9.99159664 C16.1932773,10.3721626 15.8847676,10.6806723 15.5042017,10.6806723 Z M13.4369748,9.30252101 L14.8151261,9.30252101 L14.8151261,7.92436975 L13.4369748,7.92436975 L13.4369748,9.30252101 Z"/><path d="M14.1260504,4.4789916 L11.3697479,4.4789916 C10.9891819,4.4789916 10.6806723,4.17048193 10.6806723,3.78991597 L10.6806723,1.03361345 C10.6806723,0.653047483 10.9891819,0.344537815 11.3697479,0.344537815 L14.1260504,0.344537815 C14.5066164,0.344537815 14.8151261,0.653047483 14.8151261,1.03361345 L14.8151261,3.78991597 C14.8151261,4.17048193 14.5066164,4.4789916 14.1260504,4.4789916 Z M12.0588235,3.10084034 L13.4369748,3.10084034 L13.4369748,1.72268908 L12.0588235,1.72268908 L12.0588235,3.10084034 Z"/><path d="M8.61344538,7.92436975 L5.85714286,7.92436975 C5.4765769,7.92436975 5.16806723,7.61586008 5.16806723,7.23529412 L5.16806723,4.4789916 C5.16806723,4.09842563 5.4765769,3.78991597 5.85714286,3.78991597 L8.61344538,3.78991597 C8.99401134,3.78991597 9.30252101,4.09842563 9.30252101,4.4789916 L9.30252101,7.23529412 C9.30252101,7.61586008 8.99401134,7.92436975 8.61344538,7.92436975 Z M6.54621849,6.54621849 L7.92436975,6.54621849 L7.92436975,5.16806723 L6.54621849,5.16806723 L6.54621849,6.54621849 Z"/></g></g><g stroke="none" stroke-width="1" fill="none" fill-rule="evenodd" id="icon-service-lam"><polygon fill="url(#gradient-orange)" fill-rule="nonzero" points="0 0 48 0 48 48 0 48"/><g transform="translate(11, 10)" fill="#FFFFFF"><path d="M26.5889213,27.8937088 L19.6925948,27.8937088 C19.4772752,27.8931074 19.2813916,27.7706914 19.1888047,27.578869 L9.43766764,7.45673404 L5.31218659,7.45673404 C5.00303594,7.45673404 4.75241983,7.20943823 4.75241983,6.90438337 L4.75241983,0.828526005 C4.75241983,0.523471153 5.00303594,0.276175335 5.31218659,0.276175335 L13.9325948,0.276175335 C14.1479143,0.276776788 14.3437979,0.399192787 14.4363848,0.591015217 L24.1427405,20.7131501 L26.5889213,20.7131501 C26.8980719,20.7131501 27.148688,20.9604459 27.148688,21.2655008 L27.148688,27.3413582 C27.148688,27.646413 26.8980719,27.8937088 26.5889213,27.8937088 Z M20.0452478,26.7890075 L26.0291545,26.7890075 L26.0291545,21.8178515 L23.7900875,21.8178515 C23.5747679,21.81725 23.3788843,21.694834 23.2862974,21.5030116 L13.5799417,1.38087667 L5.87755102,1.38087667 L5.87755102,6.3520327 L9.79591837,6.3520327 C10.0112379,6.35263416 10.2071215,6.47505016 10.2997085,6.66687259 L20.0452478,26.7890075 Z"/><path d="M8.10542274,27.8937099 L0.82845481,27.8937099 C0.635054571,27.8940907 0.455155006,27.7959347 0.352653061,27.634104 C0.243858391,27.4681848 0.233185428,27.2575536 0.324664723,27.0817533 L7.93749271,11.3894708 C8.03007964,11.1976484 8.22596323,11.0752324 8.4412828,11.0746298 L8.4412828,11.0746298 C8.65533487,11.0742082 8.85089022,11.1942751 8.94507289,11.3839473 L12.5891545,18.7799228 C12.6634688,18.931712 12.6634688,19.1086786 12.5891545,19.2604679 L8.6148105,27.5457279 C8.53147526,27.7523199 8.33072312,27.8894609 8.10542274,27.8937099 L8.10542274,27.8937099 Z M1.72408163,26.7890075 L7.75276968,26.7890075 L11.4640233,19.0560981 L8.44688047,12.8973881 L1.72408163,26.7890075 Z"/></g></g></defs></g><style data-styled="true" data-styled-version="5.3.11">.fVrGYg{cursor:pointer;}/*!sc*/
data-styled.g57[id="sc-hCPjZK"]{content:"fVrGYg,"}/*!sc*/
.ilwQEO{stroke:#555;background-color:#555;stroke-width:1px;}/*!sc*/
data-styled.g58[id="sc-Nxspf"]{content:"ilwQEO,"}/*!sc*/
.iQwCth{stroke-width:0;stroke:none;fill:#f2f3f3;}/*!sc*/
data-styled.g59[id="sc-cfxfcM"]{content:"iQwCth,"}/*!sc*/
.ivdaoE{font-size:10px;line-height:12.5;stroke:none;}/*!sc*/
data-styled.g60[id="sc-gFAWRd"]{content:"ivdaoE,"}/*!sc*/
.kvyjQd{fill:var(--color-text-form-secondary-btuye6,#687078);}/*!sc*/
data-styled.g86[id="sc-jaXxmE"]{content:"kvyjQd,"}/*!sc*/
.MMIMs{font-weight:400;font-size:12px;line-height:16px;font-family:Amazon Ember,Arial,Roboto,Arial,sans-serif;text-shadow:none;fill:var(--color-text-button-primary-default-qh066v,#16191f);}/*!sc*/
data-styled.g87[id="sc-ibQAlb"]{content:"MMIMs,"}/*!sc*/
.kPsCkl{fill:#fff9cc;stroke:var(--color-text-form-secondary-btuye6,#687078);stroke-width:0.6px;}/*!sc*/
data-styled.g88[id="sc-jGKxIK"]{content:"kPsCkl,"}/*!sc*/
</style><style>
.new-look-state-node &gt; rect:first-of-type {
  stroke: #687078;
  stroke-width: 1px;
  fill: #FFFFFF;
}

.new-look-state-node .error-icon circle {
 stroke-linejoin: round;
}

.new-look-state-node .error-icon circle, .new-look-state-node .error-icon path {
 stroke: var(--color-border-status-error-si9bvu, #d13212);
 fill: none;
 stroke-width: 2px;
}

.new-look-state-node.has-errors &gt; rect:first-of-type {
 stroke: var(--color-border-status-error-si9bvu, #d13212);
 fill: var(--color-background-status-error-qqw3y6, #fdf3f1);
}

.new-look-state-node.has-errors &gt; .bounding-box &gt; .new-look-state-node-sub &gt; rect {
  stroke: var(--color-border-status-error-si9bvu, #d13212);
  fill: var(--color-background-status-error-qqw3y6, #fdf3f1);
}

.new-look-state-node .handle path {
  stroke: var(--color-border-dropdown-item-hover-t6obhh, #879596);
  stroke-width: 1px;
  fill: none;
}

.new-look-state-node {
  font-weight: 400;
  font-family: Amazon Ember, Arial, Roboto, Arial, sans-serif;
  text-shadow: none;
}

.new-look-state-node .line1 {
  fill: #687078;
  font-size: 12px;
}

.new-look-state-node .line2 {
  fill: #16191f;
}

.selected.node &gt; .new-look-state-node &gt; rect,
.selected.node &gt; .new-look-state-node &gt; .new-look-state-node &gt; rect,
.selected.node &gt; .new-look-state-node &gt; .bounding-box &gt; rect,
.selected.node &gt; .new-look-state-node.has-errors &gt; rect,
.selected.node &gt; .new-look-state-node.has-errors &gt; .bounding-box &gt; rect,
.selected.node &gt; .new-look-state-node.has-errors &gt; .new-look-state-node &gt; rect,
.selected.node &gt; .new-look-state-node &gt; .bounding-box &gt; .new-look-state-node-sub &gt; rect
 {
  stroke: var(--color-border-status-info-fjyzd6, #0073bb);
  fill: var(--color-background-status-info-60ssq8, #f1faff);
  stroke-width: 1px;
}

.new-look-state-node-sub .item-source.not-specified {
  height: 15px;
  color: #687078;
  font-family: "Amazon Ember";
  font-size: 12px;
  letter-spacing: 0;
  line-height: 16px;
  font-weight: 400;
}
.new-look-state-node-sub .item-source .item-source_name{
  font-weight: 600;
}
.new-look-state-node-sub .item-source.not-specified .item-source_name{
  font-weight: 400;
}

.new-look-state-node-sub .item-source.not-specified {
  font-style: italic;
}

.new-look-state-node-sub &gt; rect,
.new-look-state-node &gt; .bounding-box &gt; rect {
  stroke: var(--color-border-control-default-ie1oqq, #687078);
  fill: #ffffff;
}

.new-look-graph .drag-source {
  opacity: 0.2;
}

.new-look-graph .edge, .new-look-graph path.starting-connection {
  stroke-width: 1px;
  stroke: var(--color-text-form-secondary-btuye6, #687078);
  marker-end: url(#large-arrowhead);
}

.new-look-graph .edge-label {
  cursor: pointer;
}

.new-look-graph .edge-label rect {
  stroke-width: 1px;
  stroke: var(--color-border-control-default-ie1oqq, #687078);
  fill: #fafafa;
}

.new-look-graph .edge-label.selected rect {
  stroke: var(--color-border-status-info-fjyzd6, #0073bb);
  fill: var(--color-background-status-info-60ssq8, #f1faff);
  stroke-width: 0.6px;
}



.new-look-graph .edge-label .label {
  fill: var(--color-text-form-secondary-btuye6, #687078);
  font-family: Amazon Ember, Arial, Roboto, Arial, sans-serif;
}

/* centering the shape text */
@-moz-document url-prefix() {
  .new-look-graph .shape + text,
  .new-look-graph .edge-label text {
    transform: translateY(3.5px);
  }
}

.new-look-graph .edge path {
  marker-end: url(#large-arrowhead) !important;
}

.new-look-graph .edge.selected path{
  stroke: var(--color-border-status-info-fjyzd6, #0073bb);
  stroke-width: 1.1px;
}

.new-look-graph .edge.dragging-over path, .new-look-graph  g.dragging-over .starting-connection {
  stroke: #5C86FF;
  stroke-width: 2px;
}

.new-look-graph .edge.dragging-over path, .new-look-graph .dragging-over path.starting-connection {
  marker-end: url(#large-highlighted-arrowhead) !important;
}

.new-look-graph .edge.dragging-over .edge-label text {
  fill: #5C86FF;
}

#large-highlighted-arrowhead {
  fill: #5C86FF;
}

#large-highlighted-arrowhead path {
  stroke: none;
}

.new-look-graph .edge.drop-not-supported path, g.drop-not-supported .starting-connection {
  stroke: red;
}

.new-look-graph .edge.drop-not-supported .edge-label text {
  fill: red;
}

.new-look-graph .edge.drop-not-supported path {
  marker-end: url(#large-error-arrowhead) !important;
}

#large-error-arrowhead {
  fill: red;
}

.node-container * &gt; .icon  {
  &gt; rect {
    fill: #fafafa;
  }
  &gt; line {
    stroke: #d5dbdb;
  }
}


.node.Placeholder.dragging-over rect {
  stroke: var(--color-border-status-info-fjyzd6, #0073bb);
  fill: var(--color-background-status-info-60ssq8, #f1faff);
  stroke-width: 2px;
}

.node.Placeholder.dragging-over .label {
  fill: var(--color-text-status-info-f9d9f2, #0073bb);
}

g.Placeholder rect {
  stroke-dasharray: 5 4;
  stroke: var(--color-border-dropdown-item-hover-t6obhh, #879596);
  fill: #ffffff;
  stroke-width: 1px;
}

g.Placeholder .label {
  font-style: italic;
  fill: var(--color-text-input-placeholder-lhl4lu, #687078);
}

.node.Placeholder.drop-not-supported rect {
  stroke: red;
}

.node.Placeholder.drop-not-supported .label {
  fill: red;
}
</style><style>.line2 { font-size: 14px }</style></svg>